<svg t="1612619560547" class="icon" viewBox="0 0 1024 1024" version="1.1" xmlns="http://www.w3.org/2000/svg" p-id="60349" width="200" height="200"><path d="M757.784775 261.347283l36.15276-11.698487c9.03819 7.298765 19.235997 13.233275 30.252357 17.462465l7.980893 37.175952h64.461054l7.946786-37.175952a111.86892 111.86892 0 0 0 30.252357-17.462465l36.186867 11.698487 32.264634-55.798034-28.240081-25.511571a112.858005 112.858005 0 0 0 0-34.959037l28.240081-25.511571-32.264634-55.798034-36.186867 11.698488a111.903026 111.903026 0 0 0-30.252357-17.496572l-7.946786-37.175952h-64.461054l-7.980893 37.175952a111.86892 111.86892 0 0 0-30.21825 17.496572l-36.186867-11.698488-32.264634 55.798034 28.240081 25.511571a112.858005 112.858005 0 0 0 0 34.959037l-28.240081 25.511571 32.264634 55.798034z" fill="#FF5A5A" p-id="60350"></path><path d="M511.673152 595.009978a158.321806 158.321806 0 0 1-158.321807-158.321806V329.423614a158.321806 158.321806 0 1 1 316.677719 0v107.264558A158.321806 158.321806 0 0 1 511.673152 595.009978z" fill="#FFE6C3" p-id="60351"></path><path d="M669.994958 356.811035v-27.387421a158.321806 158.321806 0 1 0-316.677719 0v38.847164h57.43514c50.852609 0 97.953517-26.705294 124.11311-70.327351l31.514293 30.968591a137.278171 137.278171 0 0 0 96.179986 39.35876l7.43519-11.459743z" fill="#F5B955" p-id="60352"></path><path d="M895.30169 1004.013663v-170.395465a135.061257 135.061257 0 0 0-99.863474-130.354576H227.908087a135.061257 135.061257 0 0 0-99.829368 130.354576v170.395465h767.222971z" fill="#3B77E6" p-id="60353"></path><path d="M694.517444 636.312802H328.862966a100.920772 100.920772 0 0 0-100.954879 100.920772v266.780089H795.438216v-266.780089a100.920772 100.920772 0 0 0-100.920772-100.954878z" fill="#B7D1FF" p-id="60354"></path><path d="M511.673152 820.146179m-55.968567 0a55.968566 55.968566 0 1 0 111.937133 0 55.968566 55.968566 0 1 0-111.937133 0Z" fill="#FFFFFF" p-id="60355"></path><path d="M511.673152 744.225382a76.057223 76.057223 0 0 0-75.954904 75.920797A76.057223 76.057223 0 0 0 511.673152 896.101083a76.057223 76.057223 0 0 0 75.954903-75.954904A76.057223 76.057223 0 0 0 511.673152 744.225382z m0 111.903026a36.016335 36.016335 0 0 1 0-71.964458 36.016335 36.016335 0 0 1 0 71.964458zM511.673152 614.996316a178.512782 178.512782 0 0 0 178.308143-178.308144V329.423614A178.512782 178.512782 0 0 0 511.673152 151.081363a178.512782 178.512782 0 0 0-178.308144 178.342251v107.264558A178.512782 178.512782 0 0 0 511.673152 614.996316z m0-423.942278a138.506001 138.506001 0 0 1 138.335468 138.369576v17.735316a125.920747 125.920747 0 0 1-72.373734-35.231888l-28.751676-28.240081a19.986337 19.986337 0 0 0-31.17323 3.990446 125.340939 125.340939 0 0 1-106.957601 60.607034h-37.414696v-18.860827A138.506001 138.506001 0 0 1 511.673152 191.054038z m-138.335469 197.168971h37.414696c49.147291 0 95.804816-22.339678 126.807513-59.617949l12.039552 11.834914a165.654678 165.654678 0 0 0 100.409176 46.998588v49.24961A138.506001 138.506001 0 0 1 511.673152 575.023641a138.506001 138.506001 0 0 1-138.335469-138.335469v-48.431057z" fill="#000000" p-id="60356"></path><path d="M955.465341 984.027325h-40.177313v-150.409127a155.286339 155.286339 0 0 0-111.834813-148.840233 121.077642 121.077642 0 0 0-108.901665-68.4515H328.828859a121.077642 121.077642 0 0 0-108.935771 68.4515 155.286339 155.286339 0 0 0-111.800706 148.840233v150.409127H67.880962a19.986337 19.986337 0 0 0 0 39.972675h887.584379a19.986337 19.986337 0 0 0 0-39.972675z m-80.149988-150.409127v150.409127h-59.8908v-246.793751l-0.102319-4.604361a115.279557 115.279557 0 0 1 59.993119 100.988985z m-727.250297 0a115.279557 115.279557 0 0 1 59.959013-100.954878c-0.034106 1.500681-0.102319 3.035468-0.102319 4.570254v246.793751H148.065056v-150.409127z m179.740612 150.409127v-92.598816a19.986337 19.986337 0 0 0-39.938568 0v92.598816H247.894425v-246.793751a81.036754 81.036754 0 0 1 80.934434-80.934434H694.483337a81.036754 81.036754 0 0 1 80.934435 80.934434v246.793751H327.839775zM57.717261 148.966768a19.918125 19.918125 0 0 0 28.308294 0 19.986337 19.986337 0 0 0 0-28.274187L48.303901 83.039139l37.653441-37.687547a19.986337 19.986337 0 0 0-28.240081-28.274188L5.875567 68.919099a19.986337 19.986337 0 0 0 0 28.240081l51.841694 51.807588zM244.381468 148.966768a19.918125 19.918125 0 0 0 28.308293 0L324.429137 97.15918a19.986337 19.986337 0 0 0 0-28.274187L272.655655 17.077404a19.986337 19.986337 0 0 0-28.274187 28.308294L282.069015 83.005033 244.381468 120.692581a19.986337 19.986337 0 0 0 0 28.274187zM118.494827 162.472894a19.884018 19.884018 0 0 0 27.353315-7.094127L219.040429 30.890488A19.986337 19.986337 0 1 0 184.558881 10.699512L111.4007 135.187791a19.986337 19.986337 0 0 0 7.094127 27.353315zM708.194101 215.542418l32.29874 55.798034c4.70668 8.151424 14.461104 11.937232 23.431082 9.004084l26.398336-8.526595c5.286489 3.58117 10.777615 6.753063 16.473381 9.549786l5.83219 27.148677c1.97817 9.208722 10.129594 15.791253 19.542955 15.791253h64.461054a19.986337 19.986337 0 0 0 19.542955-15.791253l5.798084-27.182783c5.729871-2.762617 11.220998-5.93451 16.473381-9.549786l26.432442 8.560701a19.986337 19.986337 0 0 0 23.431082-9.004084l32.264634-55.798034a19.986337 19.986337 0 0 0-3.888127-24.829443l-20.634359-18.656189a133.799321 133.799321 0 0 0 0-18.997253l20.634359-18.656188a19.986337 19.986337 0 0 0 3.888127-24.829444l-32.264634-55.798034a19.986337 19.986337 0 0 0-23.431082-9.004084l-26.432442 8.526595a131.616512 131.616512 0 0 0-16.473381-9.549786l-5.798084-27.148677A19.986337 19.986337 0 0 0 896.631839 0.808662h-64.461054a19.986337 19.986337 0 0 0-19.542955 15.791253l-5.798084 27.182783a131.616512 131.616512 0 0 0-16.507487 9.51568l-26.398336-8.526595a19.986337 19.986337 0 0 0-23.431082 9.004084l-32.29874 55.798034a19.986337 19.986337 0 0 0 3.922234 24.829444l20.634358 18.656188a133.799321 133.799321 0 0 0 0 18.997253l-20.634358 18.656189a19.986337 19.986337 0 0 0-3.922234 24.829443z m65.313714-38.60842a93.178624 93.178624 0 0 1 0-28.751677 19.986337 19.986337 0 0 0-6.377893-17.939955l-16.234636-14.665742 16.098211-27.830804 20.80489 6.753062c6.480212 2.046383 13.506126 0.75034 18.758508-3.47885 7.503403-6.105042 15.859466-10.914041 24.829443-14.392892a19.986337 19.986337 0 0 0 12.346509-14.461104l4.604361-21.384699h32.128208l4.570255 21.384699a19.986337 19.986337 0 0 0 12.380615 14.461104c8.969977 3.478851 17.32604 8.28785 24.829443 14.392892 5.252382 4.229191 12.278296 5.55934 18.758508 3.47885l20.80489-6.753062 16.098211 27.830804-16.268742 14.665742a19.986337 19.986337 0 0 0-6.343787 17.939955 93.178624 93.178624 0 0 1 0 28.751677c-1.023191 6.650744 1.364255 13.403807 6.343787 17.905848l16.268742 14.665743-16.098211 27.830804-20.80489-6.718956a19.986337 19.986337 0 0 0-18.758508 3.47885 91.746157 91.746157 0 0 1-24.829443 14.358785 19.986337 19.986337 0 0 0-12.380615 14.495211l-4.570255 21.384699h-32.128208l-4.604361-21.384699a19.986337 19.986337 0 0 0-12.346509-14.495211 91.814369 91.814369 0 0 1-24.829443-14.324678 19.986337 19.986337 0 0 0-18.758508-3.512957l-20.80489 6.718956-16.098211-27.796698 16.234636-14.665742a19.986337 19.986337 0 0 0 6.377893-17.939955zM20.06382 276.354089h155.866147a19.986337 19.986337 0 0 0 0-39.972674H20.029714a19.986337 19.986337 0 0 0 0 39.972674zM244.654319 276.354089h48.294631a19.986337 19.986337 0 0 0 0-39.972674H244.620212a19.986337 19.986337 0 0 0 0 39.972674zM139.981845 448.182021a19.986337 19.986337 0 0 0-19.986338-19.952231H20.06382a19.986337 19.986337 0 0 0 0 39.938569h99.931687a19.986337 19.986337 0 0 0 19.986338-19.952231zM277.396442 428.22979H189.708944a19.986337 19.986337 0 0 0 0 39.938569H277.362335a19.986337 19.986337 0 0 0 0-39.938569zM20.06382 372.261224h25.920847a19.986337 19.986337 0 0 0 0-39.972675h-25.920847a19.986337 19.986337 0 0 0 0 39.972675zM277.396442 332.322656H113.992785a19.986337 19.986337 0 0 0 0 39.938568H277.362335a19.986337 19.986337 0 0 0 0-39.972675zM1003.282483 616.292358a20.05455 20.05455 0 0 0-19.986337 19.986338 20.122763 20.122763 0 0 0 19.986337 19.986337 20.122763 20.122763 0 0 0 19.986337-19.986337 20.122763 20.122763 0 0 0-19.986337-19.986338zM833.603253 656.29914h98.3969a19.986337 19.986337 0 0 0 0-39.972675H833.637359a19.986337 19.986337 0 0 0 0 39.972675zM825.963424 540.371561a19.986337 19.986337 0 0 0-19.986337-19.986337h-51.159567a19.986337 19.986337 0 0 0 0 39.972674h51.159567a19.986337 19.986337 0 0 0 19.986337-19.986337zM1023.26882 540.371561a19.986337 19.986337 0 0 0-19.986337-19.986337H884.796926a19.986337 19.986337 0 0 0 0 39.972674h118.519663A19.986337 19.986337 0 0 0 1023.26882 540.371561z" fill="#000000" p-id="60357"></path><path d="M864.401312 182.56155a20.122763 20.122763 0 0 0 19.986338-19.986337 20.122763 20.122763 0 0 0-19.986338-19.986338 20.05455 20.05455 0 0 0-19.986337 19.986338 20.122763 20.122763 0 0 0 19.986337 19.986337zM457.205266 468.168359a20.122763 20.122763 0 0 0 19.986337-19.986338 20.122763 20.122763 0 0 0-19.986337-19.952231 20.122763 20.122763 0 0 0-19.986337 19.952231 20.122763 20.122763 0 0 0 19.986337 19.986338zM566.141037 468.168359a20.122763 20.122763 0 0 0 19.986338-19.986338 20.122763 20.122763 0 0 0-19.986338-19.952231 20.122763 20.122763 0 0 0-19.986337 19.952231 20.122763 20.122763 0 0 0 19.986337 19.986338zM307.819331 800.193948a20.122763 20.122763 0 0 0-19.986338 19.952231 20.122763 20.122763 0 0 0 19.986338 19.986338 20.122763 20.122763 0 0 0 19.986337-19.986338 20.122763 20.122763 0 0 0-19.986337-19.952231z" fill="#000000" p-id="60358"></path></svg>