<?xml version="1.0" standalone="no"?><!DOCTYPE svg PUBLIC "-//W3C//DTD SVG 1.1//EN" "http://www.w3.org/Graphics/SVG/1.1/DTD/svg11.dtd"><svg t="1676037377138" class="icon" viewBox="0 0 1024 1024" version="1.1" xmlns="http://www.w3.org/2000/svg" p-id="6674" xmlns:xlink="http://www.w3.org/1999/xlink" width="144" height="144"><path d="M888 64H136q-30.016 0-51.008 20.992T64 136v752.992q0 28.992 20.992 50.496t51.008 21.504h752.992q28.992 0 50.496-21.504t21.504-50.496V136q0-30.016-21.504-51.008T888 64zM228.992 548.992q-15.008 0-25.504-10.496t-10.496-25.504 10.016-26.016l115.008-115.008-115.008-116.992q-10.016-11.008-10.016-25.504t10.496-24.992 25.504-10.496 24.992 10.016l140.992 142.016q10.016 11.008 10.016 26.016t-11.008 24.992l-140 140.992q-10.016 11.008-24.992 11.008z m389.024 0l-199.008-0.992q-15.008 0-25.504-10.496T383.008 512t10.496-25.504 25.504-10.496l199.008 0.992q15.008 0 25.504 10.496t10.496 25.504-11.008 25.504-24.992 10.496z" fill="#1196db" p-id="6675"></path></svg>